<?xml version="1.0" encoding="utf-8"?>
<!-- Generator: Adobe Illustrator 19.0.0, SVG Export Plug-In . SVG Version: 6.00 Build 0)  -->
<svg version="1.1" id="Layer_1" xmlns="http://www.w3.org/2000/svg" xmlns:xlink="http://www.w3.org/1999/xlink" x="0px" y="0px"
	 viewBox="429 331 1470 131" style="enable-background:new 429 331 1470 131;" xml:space="preserve">
<style type="text/css">
	.st0{fill:#87cc33;}
	.st1{display:none;}
	.st2{display:inline;}
	.st3{fill:none;}
	.st4{fill:none;stroke:#000000;stroke-width:7.470000e-02;stroke-linecap:round;stroke-linejoin:round;}
	.st5{fill:#444444;stroke:#000000;stroke-width:7.470000e-02;stroke-linecap:round;stroke-linejoin:round;}
	.st6{fill:#444444;}
	.st7{fill:#444444;stroke:#000000;stroke-width:8.400000e-02;stroke-linecap:round;stroke-linejoin:round;}
</style>
<g id="Layer_1_1_">
	<path class="st0" d="M427.1,330v133h1263.1c-0.9-0.6-1.6-1.2-2.4-1.9c-6.3-6.1-6.4-13.2-6.6-19.8v-37.7h20.2v39.5
		c0,2.7,0.1,5.5,2.3,7.6c1.6,1.7,4.1,2.3,6.4,2.3c3.2,0,5.2-1.2,6.4-2.2c2.3-2.2,2.4-5,2.4-7.7v-39.5h20.3v33.7
		c0,7.3,0,16.7-7.5,23.8c-0.7,0.7-1.5,1.3-2.4,1.9h30.2c-8.9-6.4-13.1-17-13.1-27.4c0-17,11.4-34.3,33-34.3
		c9.6,0,18.8,3.4,25.5,10.2c2.7,2.8,4,4.9,5.3,7.4l-16.8,8.3c-1.6-3.8-4.7-10.5-13.1-10.5c-4.4,0-7.2,2.1-8.6,3.4
		c-4.8,4.6-4.8,11.7-4.8,14.3c0,9.4,3.5,18.3,13.4,18.3c9.4,0,12.2-8.2,12.9-10.4l17.1,8.2c-1.6,3-3.2,5.9-6.2,9
		c-1.3,1.3-2.7,2.4-4.2,3.4h18.5v-59.5h20.1v46.7h26.1V463h36.3V330C1900.9,330,427.1,330,427.1,330z"/>
</g>
<g id="Layer_3" class="st1">
	<g class="st2">
		<path class="st3" d="M2242.5,1038.2v-1.8h-0.5c0-4.9-4.4-5.9-4.4-5.9v-0.9l-0.5-0.8v-1.7l-0.6-0.8v-0.4c0,0,0-0.1,0-0.3h-0.4
			c0,0.1,0,0.3,0,0.3v0.4l-0.6,0.8v1.7l-0.5,0.8v0.9c0,0-4.4,0.9-4.4,5.9h-0.5v1.8l6.2-1.2L2242.5,1038.2z"/>
		<path class="st3" d="M2248.4,1053.2v-1.8h-2.1v-8.7h1.5l0.3-1.6v-0.4l-11.8-2.5l-11.8,2.5v0.4l0.3,1.6h1.3v8.7h-2.4v1.8h-1v1.9
			h26.8v-1.9H2248.4L2248.4,1053.2z M2231.9,1051.4h-2.8v-8.7h2.8V1051.4z M2237.6,1051.4h-2.8v-8.7h2.8V1051.4z M2243.4,1051.4
			h-2.9v-8.7h2.9V1051.4z"/>
	</g>
</g>
<g id="Layer_2" class="st1">
	<g class="st2">
		<line class="st4" x1="2231.4" y1="1036.2" x2="2231.4" y2="1036.1"/>
		<polyline class="st5" points="2249.3,1041.2 2236.8,1041.2 2224.2,1041.2 		"/>
		<path class="st5" d="M2242.5,1037.2"/>
		<path class="st6" d="M2242.5,1036.9v-0.2v-0.1l0,0l0,0h-0.1c0,0-0.1,0-0.2,0v-0.2v-0.1l0,0l0,0l0,0h-0.1v-0.1v-0.1l0,0l0,0l0,0
			c0,0,0,0-0.1,0c0-0.6,0-1.1-0.1-1.4s-0.1-0.6-0.2-0.9s-0.2-0.5-0.3-0.7c-0.1-0.2-0.3-0.4-0.4-0.7c-0.2-0.2-0.4-0.4-0.5-0.6
			c-0.1-0.1-0.3-0.3-0.5-0.5c-0.2-0.1-0.3-0.2-0.4-0.3c-0.1,0-0.1-0.1,0-0.2c0-0.1,0-0.1-0.1-0.1c-0.1,0-0.2,0-0.2-0.1
			c-0.1,0-0.2-0.1-0.3-0.2c-0.1-0.1-0.2-0.1-0.2-0.2s0-0.1-0.1-0.1s-0.1,0-0.2,0s-0.2-0.1-0.3-0.2c-0.1-0.1-0.1-0.2-0.1-0.3
			s0-0.2,0-0.3c0-0.1,0.1-0.1,0.1-0.1s0,0,0-0.1c0,0-0.1-0.1-0.2-0.2c-0.1-0.1-0.2-0.1-0.2-0.1v-0.1c0-0.1,0-0.1-0.1-0.1v-0.3v-1.1
			c0-0.1,0-0.1,0-0.1s0,0,0-0.1c0,0,0,0,0.1,0s0,0,0,0v-0.1c0-0.1,0-0.1,0.1-0.1l0.1-0.1v-0.1h-0.1h-0.1l-0.1-0.1
			c0-0.1-0.1-0.1-0.1-0.2v-0.1h-0.1c0,0-0.1,0-0.1-0.1c-0.1-0.1-0.1-0.2-0.1-0.2s0-0.1-0.1-0.1s-0.1-0.3-0.1-0.3s-0.1,0.2-0.1,0.3
			c0,0.1-0.1,0.1-0.1,0.1s0,0.1-0.1,0.2c0,0.1-0.1,0.1-0.1,0.1h-0.1c0,0,0,0,0,0.1c0,0,0,0.1-0.1,0.2c0,0.1-0.1,0.1-0.1,0.1h-0.1
			h-0.1c0,0,0,0,0,0.1c0,0.1,0,0.1,0.1,0.1l0.1,0.1v0.1l0,0h0.1v0.1v0.1v1.4l-0.1,0.1c0,0.1,0,0.1,0,0.1s-0.1,0.1-0.2,0.1
			c-0.1,0.1-0.2,0.1-0.2,0.2v0.1c0,0,0.1,0,0.1,0.1s0,0.1,0,0.3c0,0.1-0.1,0.2-0.1,0.3c-0.1,0.1-0.2,0.1-0.3,0.2c-0.1,0-0.2,0-0.2,0
			c-0.1,0-0.1,0-0.1,0.1c0,0.1-0.1,0.1-0.2,0.2c-0.1,0.1-0.2,0.1-0.3,0.2c-0.1,0-0.1,0.1-0.2,0.1c-0.1,0-0.1,0-0.1,0.1
			c0,0.1,0,0.1,0,0.2c-0.1,0-0.2,0.1-0.4,0.3c-0.2,0.2-0.4,0.3-0.5,0.5c-0.2,0.1-0.3,0.3-0.5,0.6c-0.2,0.2-0.3,0.5-0.5,0.7
			c-0.1,0.2-0.2,0.4-0.3,0.7c-0.1,0.3-0.2,0.6-0.2,0.9c-0.1,0.3-0.1,1.4-0.1,1.4c-0.1,0-0.1,0-0.1,0l0,0l0,0l0,0c0,0,0,0,0,0.1v0.1
			c-0.1,0-0.1,0-0.1,0l0,0l0,0l0,0c0,0,0,0,0,0.1v0.2c-0.1,0-0.1,0-0.2,0c0,0,0,0-0.1,0l0,0l0,0c0,0,0,0,0,0.1v0.2h-0.3l0,0
			c0,0,0,0,0.1,0c0,0,0,0,0.1,0l0,0l0,0l0,0l0,0l0,0c0,0,0,0,0.1,0c0,0,0.1,0,0.1,0.1v0.1l0,0l0,0l0,0c0,0,0,0,0.1,0v0.8h-0.1l0,0
			l0,0l0,0v0.1l-0.1,0.1v1.2l11.8-0.1v-1.1c-0.1,0-0.1,0-0.1-0.1v-0.1l0,0l0,0l0,0h-0.1v-0.8l0,0h0.1l0,0l0,0l0,0v-0.1l0.1-0.1h0.1
			l0,0l0,0l0,0l0,0l0,0c0,0,0,0,0.1,0h0.1l0,0H2242.5L2242.5,1036.9z"/>
		<path class="st6" d="M2240.1,1052.2C2240,1052.2,2240,1052.2,2240.1,1052.2c-0.1,0-0.1,0-0.1-0.1c0,0,0,0-0.1-0.1
			c-0.1,0-0.1-0.1-0.1-0.1v-1.3v-2.9l-0.1-3.4c0.1,0,0.1-0.1,0.1-0.1s-0.1,0-0.1-0.1v-0.1l0.1-0.1l0,0h-0.1c-0.1,0,0-0.1,0.1-0.1
			c0.1-0.1,0.2-0.1,0.3-0.1s0.1,0,0,0v-0.1c0,0,0.1-0.1,0-0.1c0,0,0-0.1-0.1-0.1c-0.1,0,0-0.1,0-0.1c0.1,0,0.1,0,0.2-0.1h-2.6
			c0.1,0.1,0.1,0.1,0.2,0.1s0.1,0,0,0.1l-0.1,0.1v0.1v0.1l0,0c0.1,0,0.1,0,0.3,0.1c0.1,0.1,0.2,0.1,0.1,0.1s-0.1,0-0.1,0l0,0
			c0,0,0.1,0,0.1,0.1v0.1c0,0,0,0.1-0.1,0.1c0,0,0,0,0.1,0.1l-0.1,3.4v2.9v1.3c0,0.1-0.1,0.1-0.1,0.1c-0.1,0-0.1,0-0.1,0.1
			c0,0,0,0,0,0.1h-0.1c-0.1,0-0.1,0.1-0.1,0.1L2240.1,1052.2C2240.2,1052.2,2240.2,1052.2,2240.1,1052.2z"/>
		<path class="st6" d="M2244.5,1052.2C2244.4,1052.2,2244.4,1052.2,2244.5,1052.2c-0.1,0-0.1,0-0.1-0.1c0,0,0,0-0.1-0.1
			c-0.1,0-0.1-0.1-0.1-0.1v-1.3v-2.9l-0.1-3.4c0.1,0,0.1-0.1,0.1-0.1s-0.1,0-0.1-0.1v-0.1l0.1-0.1l0,0h-0.1c-0.1,0,0-0.1,0.1-0.1
			c0.1-0.1,0.2-0.1,0.3-0.1s0.1,0,0,0v-0.1c0,0,0.1-0.1,0-0.1c0,0,0-0.1-0.1-0.1v-0.1c0.1,0,0.1,0,0.2-0.1h-2.6
			c0.1,0.1,0.1,0.1,0.2,0.1c0.1,0,0.1,0,0.1,0.1l-0.1,0.1v0.1v0.1l0,0c0.1,0,0.1,0,0.3,0.1c0.1,0.1,0.2,0.1,0.1,0.1s-0.1,0-0.1,0
			l0,0c0,0,0.1,0,0.1,0.1v0.1c0,0,0,0.1-0.1,0.1c0,0,0,0,0.1,0.1l-0.1,3.4v2.9v1.3c0,0.1-0.1,0.1-0.1,0.1c-0.1,0-0.1,0-0.1,0.1
			c0,0,0,0,0,0.1h-0.1c-0.1,0-0.1,0.1-0.1,0.1h2.5C2244.6,1052.2,2244.6,1052.2,2244.5,1052.2z"/>
		<path class="st6" d="M2235.7,1052.2C2235.6,1052.2,2235.6,1052.2,2235.7,1052.2C2235.6,1052.2,2235.6,1052.2,2235.7,1052.2
			c-0.1-0.1-0.1-0.1-0.2-0.2c-0.1,0-0.1-0.1-0.1-0.1v-1.3v-2.9l-0.1-3.4c0.1,0,0.1-0.1,0.1-0.1s-0.1,0-0.1-0.1v-0.1l0.1-0.1l0,0
			h-0.1c-0.1,0,0-0.1,0.1-0.1c0.1-0.1,0.2-0.1,0.3-0.1c0.1,0,0.1,0,0,0v-0.1c0,0,0.1-0.1,0-0.1c0,0,0-0.1-0.1-0.1v-0.1
			c0,0,0.1,0,0.2-0.1h-2.6c0.1,0.1,0.1,0.1,0.2,0.1c0.1,0,0.1,0,0,0.1l-0.1,0.1v0.1v0.1l0,0c0.1,0,0.1,0,0.3,0.1
			c0.1,0.1,0.2,0.1,0.1,0.1c-0.1,0-0.1,0-0.1,0l0,0c0,0,0.1,0,0.1,0.1v0.1c0,0,0,0.1-0.1,0.1c0,0,0,0,0.1,0.1l-0.1,3.4v2.9v1.3
			c0,0.1-0.1,0.1-0.1,0.1c-0.1,0-0.1,0-0.1,0.1c0,0,0,0,0,0.1h-0.1c-0.1,0-0.1,0.1-0.1,0.1L2235.7,1052.2
			C2235.8,1052.2,2235.8,1052.2,2235.7,1052.2z"/>
		<path class="st6" d="M2231.3,1052.2C2231.2,1052.2,2231.2,1052.2,2231.3,1052.2C2231.2,1052.2,2231.2,1052.2,2231.3,1052.2
			c-0.1-0.1-0.1-0.1-0.2-0.2c-0.1,0-0.1-0.1-0.1-0.1v-1.3v-2.9l-0.1-3.4c0.1,0,0.1-0.1,0.1-0.1s-0.1,0-0.1-0.1v-0.1l0.1-0.1l0,0
			h-0.1c-0.1,0,0-0.1,0.1-0.1c0.1-0.1,0.2-0.1,0.3-0.1s0.1,0,0,0v-0.1c0,0,0.1-0.1,0-0.1c0,0,0-0.1-0.1-0.1v-0.1c0,0,0.1,0,0.2-0.1
			h-2.6c0.1,0.1,0.1,0.1,0.2,0.1c0.1,0,0.1,0,0,0.1l-0.1,0.1v0.1v0.1l0,0c0,0,0.1,0,0.3,0.1c0.1,0.1,0.2,0.1,0.1,0.1
			c-0.1,0-0.1,0-0.1,0l0,0c0,0,0.1,0,0.1,0.1v0.1c0,0,0,0.1-0.1,0.1c0,0,0,0,0.1,0.1l-0.1,3.4v2.9v1.3c0,0.1-0.1,0.1-0.1,0.1
			c-0.1,0-0.1,0-0.1,0.1c0,0,0,0,0,0.1h-0.1c-0.1,0-0.1,0.1-0.1,0.1L2231.3,1052.2C2231.4,1052.2,2231.4,1052.2,2231.3,1052.2z"/>
		<path class="st6" d="M2226.9,1052.2C2226.8,1052.2,2226.8,1052.2,2226.9,1052.2C2226.8,1052.2,2226.8,1052.2,2226.9,1052.2
			c-0.1-0.1-0.1-0.1-0.2-0.2c-0.1,0-0.1-0.1-0.1-0.1v-1.3v-2.9l-0.1-3.4c0.1,0,0.1-0.1,0.1-0.1s-0.1,0-0.1-0.1v-0.1l0.1-0.1l0,0
			h-0.1c-0.1,0,0-0.1,0.1-0.1c0.1-0.1,0.2-0.1,0.3-0.1s0.1,0,0,0v-0.1c0,0,0.1-0.1,0-0.1c0,0,0-0.1-0.1-0.1c0,0,0-0.1,0.1-0.1
			s0.1,0,0.2-0.1h-1.2h-0.9h-0.5l0,0c0.1,0.1,0.1,0.1,0.2,0.1c0.1,0,0.1,0,0,0.1l-0.1,0.1v0.1v0.1l0,0c0.1,0,0.1,0,0.3,0.1
			c0.1,0.1,0.2,0.1,0.1,0.1c-0.1,0-0.1,0-0.1,0l0,0c0,0,0.1,0,0.1,0.1v0.1c0,0,0,0.1-0.1,0.1c0,0,0,0,0.1,0.1l-0.1,3.4v2.9v1.3
			c0,0.1-0.1,0.1-0.1,0.1c-0.1,0-0.1,0-0.1,0.1c0,0,0,0,0,0.1h-0.1c-0.1,0-0.1,0.1-0.1,0.1h2.5
			C2227,1052.2,2227,1052.2,2226.9,1052.2z"/>
		<path class="st6" d="M2248.9,1052.2C2248.8,1052.2,2248.8,1052.2,2248.9,1052.2C2248.8,1052.2,2248.8,1052.2,2248.9,1052.2
			c-0.1-0.1-0.1-0.1-0.2-0.2c-0.1,0-0.1-0.1-0.1-0.1v-1.3v-2.9l-0.1-3.4c0.1,0,0.1-0.1,0.1-0.1s-0.1,0-0.1-0.1v-0.1l0.1-0.1l0,0
			h-0.1c-0.1,0,0-0.1,0.1-0.1c0.1-0.1,0.2-0.1,0.3-0.1c0.1,0,0.1,0,0,0v-0.1c0,0,0.1-0.1,0-0.1c0,0,0-0.1-0.1-0.1v-0.1
			c0,0,0.1,0,0.2-0.1h-2.6c0.1,0.1,0.1,0.1,0.2,0.1s0.1,0,0,0.1l-0.1,0.1v0.1v0.1l0,0c0.1,0,0.1,0,0.3,0.1c0.1,0.1,0.2,0.1,0.1,0.1
			s-0.1,0-0.1,0l0,0c0,0,0.1,0,0.1,0.1v0.1c0,0,0,0.1-0.1,0.1c0,0,0,0,0.1,0.1l-0.1,3.4v2.9v1.3c0,0.1-0.1,0.1-0.1,0.1
			c-0.1,0-0.1,0-0.1,0.1c0,0,0,0,0,0.1h-0.1c-0.1,0-0.1,0.1-0.1,0.1L2248.9,1052.2C2249,1052.2,2249,1052.2,2248.9,1052.2z"/>
		<path class="st6" d="M2249.7,1053.2v-0.3l-0.1-0.2h-0.3v-0.2h-0.3l0,0v-0.1l0,0h-1.8h-1.4h-1.8h-1.4h-1.8h-1.4h-1.8h-1.4h-1.8
			h-1.4h-1.8h-1.4h-1.8h-1.4h-1.8l0,0v0.1l0,0h-0.3v0.2h-0.3l-0.1,0.2v0.3h-0.4c0,0.1,0,0.1,0,0.1s0,0,0,0.1v0.1h0.1v0.1v3.1h13.1
			h13.1v-3.1c0-0.1,0-0.1,0-0.1s0,0,0.1,0c0,0,0,0,0-0.1c0-0.1,0-0.1,0-0.1v-0.1H2249.7L2249.7,1053.2z"/>
		<path class="st6" d="M2226.4,1043.2h1.4h1.9h1.4h1.9h0.7h0.7h1.9h1.4h1.9h1.4h1.9h1.4h1.9h1.4h1.5h0.1c0-0.1,0-0.2,0-0.2
			s0,0,0-0.1v-0.1v-0.1h0.1l0,0l0,0h-0.1c0,0,0-0.1,0-0.3c0-0.2,0-0.3,0-0.3s0-0.1,0.1-0.1h0.1c0,0,0.1,0,0.1-0.1v-0.1
			c0-0.1,0-0.1,0.1-0.1h0.1h0.1c0,0,0,0,0-0.1v-0.1v-0.1c0,0,0,0,0-0.1v-0.1h0.1c0,0,0.1,0,0.1-0.1l-12.7-2.6l-12.7,2.6
			c0,0.1,0,0.1,0.1,0.1c0.1,0,0.1,0,0.1,0s0,0,0,0.1v0.1c0,0,0,0,0,0.1s0,0.1,0,0.1v0.1c0,0,0,0,0.1,0h0.1c0,0,0.1,0,0.1,0.1
			s0,0.1,0,0.1c0,0.1,0,0.1,0.1,0.1h0.1l0.1,0.1c0,0,0,0.1,0,0.3c0,0.2,0,0.3,0,0.3s0,0-0.1,0l0,0l0,0c0,0,0,0,0.1,0v0.1
			c0,0.1,0,0.1,0,0.1v0.1c0,0,0,0.1,0,0.2h0.6H2226.4z"/>
		<path class="st7" d="M2224.8,1043.2"/>
	</g>
</g>
<g id="Layer_4">
	<g>
		<path class="st6" d="M1672.9,417.9l-10.9-2.3c0,0-10.8,2.3-10.9,2.3c-0.1,0,0,0.1,0,0.1l0.2,0.6l0,0l0,0c0,0,0.2,0,0.3,0.1
			l0.2,0.9c0,0,0,0.1,0.1,0.1c0.1,0,0.4,0,0.4,0h19.7c0,0,0.3,0,0.4,0c0.1,0,0.1,0,0.1,0l0.2-0.9c0.1-0.2,0.3-0.2,0.3-0.2l0,0l0,0
			L1672.9,417.9C1673,417.9,1673,417.9,1672.9,417.9z"/>
		<path class="st6" d="M1671.8,419.9L1671.8,419.9v-0.3l0,0h-1.7l0,0v0.3l0,0h0.1c0,0,0,0,0,0.1c0,0,0,0.3,0.2,0.4v0.1
			c0,0,0,0-0.1,0l0,0v0.1v0.1l0,0l0,0l0,0l0,0v6.1l-0.1,0.1l0,0v0.1l0,0l0,0h-0.1l0,0v0.2h1.6V427l0,0h-0.1l0,0l0,0l0,0l0,0
			l-0.1-0.1v-6.1l0,0l0,0l0,0l0,0v-0.1v-0.1l0,0l0,0c0,0-0.1-0.1,0-0.1c0.2-0.1,0.2-0.3,0.2-0.4
			C1671.7,419.9,1671.7,419.9,1671.8,419.9L1671.8,419.9z"/>
		<path class="st6" d="M1668.2,419.9L1668.2,419.9v-0.3l0,0h-1.7l0,0v0.3l0,0h0.1c0,0,0,0,0,0.1c0,0,0,0.3,0.2,0.4v0.1
			c0,0,0,0-0.1,0l0,0v0.1v0.1l0,0l0,0l0,0l0,0v6.1l-0.1,0.1l0,0v0.1l0,0l0,0h-0.1l0,0v0.2h1.6V427l0,0h-0.1l0,0l0,0l0,0l0,0
			l-0.1-0.1v-6.1l0,0l0,0l0,0l0,0v-0.1v-0.1l0,0l0,0c0,0-0.1-0.1,0-0.1c0.2-0.1,0.2-0.3,0.2-0.4
			C1668.1,419.9,1668.1,419.9,1668.2,419.9L1668.2,419.9z"/>
		<path class="st6" d="M1664.7,419.9L1664.7,419.9v-0.3l0,0h-1.7l0,0v0.3l0,0h0.1c0,0,0,0,0,0.1c0,0,0,0.3,0.2,0.4v0.1
			c0,0,0,0-0.1,0l0,0v0.1v0.1l0,0l0,0l0,0l0,0v6.1l-0.1,0.1l0,0v0.1l0,0l0,0h-0.1l0,0v0.2h1.6V427l0,0h-0.1l0,0l0,0l0,0l0,0
			l-0.1-0.1v-6.1l0,0l0,0l0,0l0,0v-0.1v-0.1l0,0c0,0,0,0-0.1,0c0,0-0.1-0.1,0-0.1c0.2-0.1,0.2-0.3,0.2-0.4
			C1664.6,419.9,1664.6,419.9,1664.7,419.9L1664.7,419.9z"/>
		<path class="st6" d="M1661.1,419.9L1661.1,419.9v-0.3l0,0h-1.7l0,0v0.3l0,0h0.1c0,0,0,0,0,0.1c0,0,0,0.3,0.2,0.4v0.1
			c0,0,0,0-0.1,0l0,0v0.1v0.1l0,0l0,0l0,0l0,0v6.1l-0.1,0.1l0,0v0.1l0,0l0,0h-0.1l0,0v0.2h1.6V427l0,0h-0.1l0,0l0,0l0,0l0,0
			l-0.1-0.1v-6.1l0,0l0,0l0,0l0,0v-0.1v-0.1l0,0l0,0c0,0-0.1-0.1,0-0.1c0.2-0.1,0.2-0.3,0.2-0.4C1661,419.9,1661,419.9,1661.1,419.9
			L1661.1,419.9z"/>
		<path class="st6" d="M1657.5,419.9C1657.5,419.9,1657.6,419.9,1657.5,419.9v-0.3l0,0h-1.7l0,0v0.3l0,0h0.1c0,0,0,0,0,0.1
			c0,0,0,0.3,0.2,0.4v0.1c0,0,0,0-0.1,0l0,0v0.1v0.1l0,0l0,0l0,0l0,0v6.1l-0.1,0.1l0,0v0.1l0,0l0,0h-0.1l0,0v0.2h1.6V427l0,0h-0.1
			l0,0l0,0l0,0l0,0l-0.1-0.1v-6.1l0,0l0,0l0,0l0,0v-0.1v-0.1l0,0c0,0,0,0-0.1,0c0,0-0.1-0.1,0-0.1c0.2-0.1,0.2-0.3,0.2-0.4
			C1657.4,419.9,1657.4,419.9,1657.5,419.9L1657.5,419.9z"/>
		<path class="st6" d="M1654,419.9L1654,419.9v-0.3l0,0h-1.7l0,0v0.3l0,0h0.1c0,0,0,0,0,0.1c0,0,0,0.3,0.2,0.4v0.1c0,0,0,0-0.1,0
			l0,0v0.1v0.1l0,0l0,0l0,0l0,0v6.1l-0.1,0.1l0,0v0.1l0,0l0,0h-0.1l0,0v0.2h1.6V427l0,0h-0.1l0,0l0,0l0,0l0,0l-0.1-0.1v-6.1l0,0l0,0
			l0,0l0,0v-0.1v-0.1l0,0c0,0,0,0-0.1,0c0,0-0.1-0.1,0-0.1c0.2-0.1,0.2-0.3,0.2-0.4C1653.9,419.9,1653.9,419.9,1654,419.9
			L1654,419.9z"/>
		<g>
			<path class="st6" d="M1667.1,413.4c0,0-0.1,0-0.2,0l0,0c0,0,0-0.1,0-0.2l0,0c0,0-0.1,0-0.2,0l0,0V413l0,0h-0.1c0,0-0.1,0-0.1-0.1
				c0-0.2,0.1-1.9-0.8-3c-0.7-1-1.6-1.5-2.1-1.8c0-0.2-0.3-0.3-0.5-0.4c-0.1,0-0.1-0.1-0.1-0.1v-0.1c0-0.1,0.1-0.1,0.2-0.1h0.1v-0.2
				c0,0,0-0.1-0.1-0.1c-0.1,0-0.1,0-0.2,0c0,0-0.1,0-0.1-0.1c0,0,0,0,0-0.1s0-0.1-0.1-0.1v-1.2c0,0,0,0,0.1,0l0,0l0,0l0,0v-0.1l0,0
				h-0.1c0,0,0,0,0-0.1s0-0.1,0-0.1l0,0l0,0v-0.1l0,0h-0.1c0,0,0,0-0.1,0c-0.2-0.2-0.4-0.4-0.4-0.4l0,0c0,0,0-0.1-0.1-0.1
				c-0.1,0,0-0.1,0-0.1l0,0c0,0,0,0,0-0.1l-0.1-0.2l0,0c0,0-0.1,0.1-0.1,0.2v0.1l0,0v0.1c-0.1,0-0.1,0-0.1,0.1l0,0
				c0,0-0.2,0.3-0.4,0.4c0,0,0,0-0.1,0h-0.1l0,0v0.1l0,0l0,0c0,0,0,0,0,0.1s0,0.1,0,0.1h-0.1l0,0v0.1l0,0l0,0l0,0h0.1v1.2
				c0,0-0.1,0-0.1,0.1s0,0.1,0,0.1s0,0.1-0.1,0.1c0,0-0.1,0-0.2,0c0,0-0.1,0-0.1,0.1v0.2c0,0,0,0,0.1,0c0.1,0,0.2,0,0.2,0.1v0.1
				c0,0.1-0.1,0.1-0.1,0.1c-0.1,0-0.4,0.1-0.5,0.4c-0.5,0.2-1.5,0.8-2.1,1.8c-0.9,1.2-0.8,2.8-0.8,3c0,0,0,0.1-0.1,0.1h-0.1l0,0v0.2
				l0,0h-0.2l0,0v0.2l0,0h-0.2l0,0c0,0,0,0.1,0,0.2l0,0c0.1,0,0.2,0.1,0.2,0.2c0,0.2,0.1,0.2,0.2,0.2v0.7c0,0.2-0.1,0.2-0.2,0.2l0,0
				v0.7l5-1.1l0,0l5,1.1v-0.7l0,0c-0.1,0-0.2-0.1-0.2-0.2V414c0,0,0.2,0,0.2-0.2c0-0.1,0.1-0.2,0.2-0.2l0,0
				C1667.2,413.6,1667.2,413.5,1667.1,413.4C1667.2,413.4,1667.1,413.4,1667.1,413.4z"/>
		</g>
		<polygon class="st6" points="1672.6,429.4 1672.6,427.9 1671.8,427.9 1671.8,427.3 1652.3,427.3 1652.3,427.9 1651.5,427.9 
			1651.5,429.4 1650.6,429.4 1650.6,430.8 1673.5,430.8 1673.5,429.4 		"/>
	</g>
</g>
</svg>
