<svg xmlns="http://www.w3.org/2000/svg" viewBox="0 0 1473.76 133"><title>UCL logo</title><path id="bg" d="M-3.76-2V131H1259.3a20.67,20.67,0,0,1-2.35-1.92c-6.31-6.1-6.39-13.18-6.57-19.81V71.61h20.17v39.54c0,2.69.09,5.47,2.34,7.62a8.7,8.7,0,0,0,6.39,2.33,9.25,9.25,0,0,0,6.4-2.24c2.34-2.24,2.43-5,2.43-7.71V71.61h20.26v33.71c0,7.26,0,16.68-7.47,23.76a23,23,0,0,1-2.35,1.92h30.21c-8.89-6.38-13.07-17-13.07-27.38,0-17,11.44-34.34,33-34.34,9.64,0,18.82,3.41,25.48,10.22a29.47,29.47,0,0,1,5.31,7.44l-16.84,8.34c-1.62-3.77-4.68-10.49-13.15-10.49a11.9,11.9,0,0,0-8.55,3.41c-4.77,4.57-4.77,11.74-4.77,14.26,0,9.41,3.52,18.29,13.42,18.29,9.37,0,12.16-8.25,12.88-10.4l17.11,8.25a33.62,33.62,0,0,1-6.21,9,29.82,29.82,0,0,1-4.24,3.44h18.5V71.52h20.08v46.75h26.06V131H1470V-2Z" transform="translate(3.76 2)"  style="fill: #f6be00;"></path><path id="icon" d="M1242.06,85.83l-10.87-2.34-10.87,2.34a0,0,0,0,0,0,.06l.15.56h0a.29.29,0,0,1,.27.13l.16.89a.07.07,0,0,0,.07.06h20.48a.06.06,0,0,0,.06,0l.16-.89a.28.28,0,0,1,.28-.15h0l.15-.56S1242.12,85.84,1242.06,85.83Zm-1.14,2a0,0,0,0,0,0,0v-.28s0,0,0,0h-1.65s0,0,0,0v.28a0,0,0,0,0,0,0h.07s0,0,0,.06a.56.56,0,0,0,.17.39,0,0,0,0,1,0,.07h-.05s0,0,0,0a.4.4,0,0,1,0,.13v.12s0,0,0,0h0s0,0,0,0v6.1l-.09.09V95s0,0,0,0h-.1a0,0,0,0,0,0,0v.18h1.62v-.18a0,0,0,0,0,0,0h-.1V94.9l-.09-.09v-6.1s0,0,0,0h0s0,0,0,0v-.12a.45.45,0,0,1,0-.13s0,0,0,0h0a0,0,0,0,1,0-.07.54.54,0,0,0,.17-.38s0-.07,0-.07Zm-3.56,0a0,0,0,0,0,0,0v-.28s0,0,0,0h-1.65s0,0,0,0v.28a0,0,0,0,0,0,0h.07s0,0,0,.06a.57.57,0,0,0,.17.39,0,0,0,0,1,0,.07h-.05s0,0,0,0a.35.35,0,0,1,0,.13v.12s0,0,0,0h0s0,0,0,0a.11.11,0,0,0,0,0v6.07l-.09.09V95s0,0,0,0h-.1a0,0,0,0,0,0,0v.18h1.61v-.18a0,0,0,0,0,0,0h-.1a0,0,0,0,1,0,0V94.9l-.09-.09v-6.1a0,0,0,0,1,0,0h0s0,0,0,0v-.12a.42.42,0,0,1,0-.13s0,0,0,0h0a0,0,0,0,1,0-.07.54.54,0,0,0,.17-.38s0-.07,0-.07Zm-3.56,0s0,0,0,0v-.28s0,0,0,0h-1.65s0,0,0,0v.28a0,0,0,0,0,0,0h.07s0,0,0,.06a.57.57,0,0,0,.17.39,0,0,0,0,1,0,.07h-.05s0,0,0,0a.4.4,0,0,1,0,.13v.12s0,0,0,0h0a0,0,0,0,1,0,0v6.1l-.09.09V95a0,0,0,0,1,0,0h-.1a0,0,0,0,0,0,0v.18h1.61v-.18a0,0,0,0,0,0,0h-.1V94.9l-.09-.09v-6.1a0,0,0,0,1,0,0h0s0,0,0,0v-.12a.37.37,0,0,1,0-.13s0,0,0,0h-.05a0,0,0,0,1,0-.07.54.54,0,0,0,.16-.38s0-.07,0-.07Zm-3.57,0a0,0,0,0,0,0,0v-.28s0,0,0,0h-1.65s0,0,0,0v.28s0,0,0,0h.07s0,0,0,.06a.57.57,0,0,0,.17.39,0,0,0,0,1,0,.07h-.05s0,0,0,0a.4.4,0,0,1,0,.13v.12s0,0,0,0h0s0,0,0,0v6.1l-.09.09V95s0,0,0,0h-.1a0,0,0,0,0,0,0v.18h1.61v-.18a0,0,0,0,0,0,0h-.1a0,0,0,0,1,0,0V94.9l-.09-.09V88.73a.12.12,0,0,1,0,0,0,0,0,0,1,0,0h0s0,0,0,0v-.12a.39.39,0,0,1,0-.13s0,0,0,0h0a0,0,0,0,1,0-.07.54.54,0,0,0,.17-.38s0-.07,0-.07Zm-3.56,0s0,0,0,0v-.28s0,0,0,0H1225s0,0,0,0v.28a0,0,0,0,0,0,0h.07s0,0,0,.06a.57.57,0,0,0,.17.39,0,0,0,0,1,0,.07h-.05s0,0,0,0a.4.4,0,0,1,0,.13v.12s0,0,0,0h0a0,0,0,0,1,0,0v6.1l-.09.09V95s0,0,0,0h-.09a0,0,0,0,0,0,0v.18h1.61v-.18a0,0,0,0,0,0,0h-.1a0,0,0,0,1,0,0V94.9l-.09-.09v-6.1a0,0,0,0,1,0,0h0s0,0,0,0v-.12a.39.39,0,0,1,0-.13s0,0,0,0h-.05a0,0,0,0,1,0-.07.54.54,0,0,0,.17-.38s0-.07,0-.07Zm-3.57,0a0,0,0,0,0,0,0v-.28s0,0,0,0h-1.65s0,0,0,0v.28a0,0,0,0,0,0,0h.07s0,0,0,.06a.57.57,0,0,0,.17.39,0,0,0,0,1,0,.07h-.05s0,0,0,0a.4.4,0,0,1,0,.13v.12s0,0,0,0h0s0,0,0,0v6.1l-.09.09V95a0,0,0,0,1,0,0h-.1a0,0,0,0,0,0,0v.18h1.62v-.18a0,0,0,0,0,0,0h-.1a0,0,0,0,1,0,0V94.9l-.09-.09v-6.1s0,0,0,0h0s0,0,0,0v-.12a.35.35,0,0,1,0-.13s0,0,0,0h-.05a0,0,0,0,1,0-.07.54.54,0,0,0,.17-.38s0-.07,0-.07Zm13.14-6.43h-.17s0,0,0,0v-.18a0,0,0,0,0,0,0h-.17a0,0,0,0,1,0,0v-.17a0,0,0,0,0,0,0h-.1a.08.08,0,0,1-.07-.08,5.3,5.3,0,0,0-.79-3,5.15,5.15,0,0,0-2.13-1.77c0-.22-.32-.3-.46-.35s-.14-.05-.14-.12v-.07c0-.07.06-.1.16-.09a0,0,0,0,0,.05,0v-.2a.06.06,0,0,0-.07-.06H1232a.07.07,0,0,1-.07-.06v-.1a.12.12,0,0,0-.08-.11V73.56s0,0,.06,0h0a0,0,0,0,0,0,0v-.12a0,0,0,0,0,0,0h-.06s0,0,0-.09,0-.08,0-.09h0a0,0,0,0,0,0,0V73a0,0,0,0,0,0,0h-.06l-.07,0a1.8,1.8,0,0,1-.42-.44v0a.08.08,0,0,0-.08-.07c-.06,0,0-.06,0-.06s0,0,0,0v-.08a.85.85,0,0,0-.1-.18h0a.8.8,0,0,0-.1.18v.08s0,0,0,0,0,.06,0,.06a.08.08,0,0,0-.08.07s0,0,0,0a1.85,1.85,0,0,1-.42.44l-.07,0h-.06a0,0,0,0,0,0,0v.12a0,0,0,0,0,0,0h0s0,0,0,.09,0,.08,0,.09h-.06a0,0,0,0,0,0,0v.12a0,0,0,0,0,0,0h0s.06,0,.06,0v1.22a.13.13,0,0,0-.08.11V75a.07.07,0,0,1-.07.06h-.19a.07.07,0,0,0-.07.06v.2a0,0,0,0,0,.05,0c.09,0,.16,0,.16.09v.07c0,.06-.06.09-.14.12s-.45.13-.46.35a5.09,5.09,0,0,0-2.13,1.77,5.31,5.31,0,0,0-.79,3,.08.08,0,0,1-.07.08h-.1a0,0,0,0,0,0,0v.17a0,0,0,0,1,0,0h-.17a0,0,0,0,0,0,0v.18s0,0,0,0h-.17a0,0,0,0,0,0,0v.2s0,0,0,0a.17.17,0,0,1,.15.17c0,.19.12.21.16.21v.71a.25.25,0,0,1-.2.25,0,0,0,0,0,0,0v.73l5-1.1h0l5,1.1V83a0,0,0,0,0,0,0,.25.25,0,0,1-.2-.25V82s.16,0,.16-.21a.18.18,0,0,1,.15-.17s0,0,0,0v-.2A0,0,0,0,0,1236.24,81.39Zm5.51,15.93V95.87h-.85v-.64h-19.44v.64h-.85v1.46h-.86v1.47h22.86V97.32Z" transform="translate(3.76 2)" style="fill:#fff"></path></svg>